<svg width="176" height="52" viewBox="0 0 176 52" fill="none" xmlns="http://www.w3.org/2000/svg">
<path fill-rule="evenodd" clip-rule="evenodd" d="M0 16.372V16.5L29.754 30.264L59.613 16.453V16.418L29.754 2.608L0 16.372ZM10.727 16.436L29.755 7.634L48.785 16.436L29.754 25.237L10.727 16.436ZM29.754 35.61L0 22.052V27.066L29.754 40.656L59.613 27.02V22.005L29.754 35.61ZM29.754 45.78L0 32.22V37.235L29.754 50.826L59.613 37.19V32.176L29.754 45.78Z" fill="white"/>
<path d="M75.2955 13.7273H80.4545L87.3636 30.5909H87.6364L94.5455 13.7273H99.7045V37H95.6591V21.0114H95.4432L89.0114 36.9318H85.9886L79.5568 20.9773H79.3409V37H75.2955V13.7273ZM118.966 13.7273H123.182V28.9318C123.182 30.5985 122.788 32.0644 122 33.3295C121.22 34.5947 120.121 35.5833 118.705 36.2955C117.288 37 115.633 37.3523 113.739 37.3523C111.837 37.3523 110.178 37 108.761 36.2955C107.345 35.5833 106.246 34.5947 105.466 33.3295C104.686 32.0644 104.295 30.5985 104.295 28.9318V13.7273H108.511V28.5795C108.511 29.5492 108.723 30.4129 109.148 31.1705C109.58 31.928 110.186 32.5227 110.966 32.9545C111.746 33.3788 112.67 33.5909 113.739 33.5909C114.807 33.5909 115.731 33.3788 116.511 32.9545C117.299 32.5227 117.905 31.928 118.33 31.1705C118.754 30.4129 118.966 29.5492 118.966 28.5795V13.7273ZM140.412 20.125C140.306 19.1326 139.859 18.3598 139.071 17.8068C138.291 17.2538 137.276 16.9773 136.026 16.9773C135.147 16.9773 134.393 17.1098 133.764 17.375C133.135 17.6402 132.654 18 132.321 18.4545C131.988 18.9091 131.817 19.428 131.81 20.0114C131.81 20.4962 131.92 20.9167 132.139 21.2727C132.366 21.6288 132.673 21.9318 133.06 22.1818C133.446 22.4242 133.874 22.6288 134.344 22.7955C134.813 22.9621 135.287 23.1023 135.764 23.2159L137.946 23.7614C138.825 23.9659 139.67 24.2424 140.48 24.5909C141.298 24.9394 142.029 25.3788 142.673 25.9091C143.325 26.4394 143.84 27.0795 144.219 27.8295C144.598 28.5795 144.787 29.4583 144.787 30.4659C144.787 31.8295 144.438 33.0303 143.741 34.0682C143.045 35.0985 142.037 35.9053 140.719 36.4886C139.408 37.0644 137.821 37.3523 135.957 37.3523C134.147 37.3523 132.575 37.072 131.241 36.5114C129.916 35.9508 128.878 35.1326 128.128 34.0568C127.385 32.9811 126.984 31.6705 126.923 30.125H131.071C131.132 30.9356 131.382 31.6098 131.821 32.1477C132.26 32.6856 132.832 33.0871 133.537 33.3523C134.249 33.6174 135.045 33.75 135.923 33.75C136.84 33.75 137.643 33.6136 138.332 33.3409C139.029 33.0606 139.575 32.6742 139.969 32.1818C140.363 31.6818 140.563 31.0985 140.571 30.4318C140.563 29.8258 140.385 29.3258 140.037 28.9318C139.688 28.5303 139.2 28.197 138.571 27.9318C137.95 27.6591 137.223 27.4167 136.389 27.2045L133.741 26.5227C131.825 26.0303 130.31 25.2841 129.196 24.2841C128.09 23.2765 127.537 21.9394 127.537 20.2727C127.537 18.9015 127.908 17.7008 128.651 16.6705C129.401 15.6402 130.42 14.8409 131.707 14.2727C132.995 13.697 134.454 13.4091 136.082 13.4091C137.734 13.4091 139.181 13.697 140.423 14.2727C141.673 14.8409 142.654 15.6326 143.366 16.6477C144.079 17.6553 144.446 18.8144 144.469 20.125H140.412ZM151.159 37H146.659L154.852 13.7273H160.057L168.261 37H163.761L157.545 18.5H157.364L151.159 37ZM151.307 27.875H163.58V31.2614H151.307V27.875Z" fill="white"/>
</svg>
